<svg width="638" height="504" viewBox="0 0 638 504" fill="none" xmlns="http://www.w3.org/2000/svg">
<path d="M242.924 0.61145L225.156 2.74995C225.156 2.74995 145.44 11.4632 87.223 58.2145H86.5405L85.8125 58.8969C72.754 70.9089 67.0665 85.6737 58.0803 107.263C47.4874 133.239 38.4697 159.828 31.076 186.888C14.1955 247.927 0.5 321.864 0.5 389.5V395.187L3.34375 400.875C24.4102 437.844 61.8112 461.39 96.4822 477.656C131.13 493.922 161.092 502.545 181.795 503.25L195.308 503.955L202.406 491.875L227.295 447.785C253.685 453.746 284.079 457.75 319 457.75C353.921 457.75 384.315 453.746 410.705 447.785L435.594 491.875L442.714 503.955L456.205 503.25C476.908 502.545 506.87 493.922 541.518 477.656C576.189 461.39 613.59 437.844 634.656 400.875L637.5 395.187V389.5C637.5 321.864 623.805 247.927 606.924 186.888C599.53 159.828 590.513 133.239 579.92 107.263C570.933 85.6509 565.246 70.9089 552.188 58.9197L551.482 58.1917H550.754C492.583 11.4632 412.844 2.74995 412.844 2.74995L395.076 0.61145L388.661 16.9687C388.661 16.9687 382.086 33.5762 378.013 52.527C358.455 49.8285 338.743 48.3998 319 48.2499C306.829 48.2499 285.785 49.0462 259.987 52.527C257.296 40.4314 253.73 28.5474 249.317 16.9687L242.924 0.61145ZM211.643 52.527C212.621 55.712 213.599 58.4647 214.487 61.0582C185.071 68.3382 153.698 79.4402 124.92 97.299L149.08 135.701C208.094 99.0734 292.86 93.7499 319 93.7499C345.117 93.7499 429.906 99.0734 488.92 135.701L513.08 97.299C484.302 79.4402 452.929 68.3382 423.513 61.0354C424.401 58.4647 425.379 55.7119 426.357 52.5042C447.583 56.7812 488.124 66.5637 521.612 93.0447C521.43 93.1357 530.143 106.285 537.969 125.031C545.977 144.323 554.849 170.008 562.857 198.969C578.236 254.501 590.316 322.137 591.295 381.674C576.962 403.537 550.413 423.261 522.317 436.433C504.697 444.76 486.055 450.726 466.875 454.178L455.5 435C462.257 432.497 468.922 429.767 474.701 427.174C509.713 411.795 528.732 395.187 528.732 395.187L498.862 361.062C498.862 361.062 486.076 372.801 456.205 385.951C426.38 399.1 380.766 412.25 319 412.25C257.234 412.25 211.643 399.1 181.795 385.951C151.924 372.801 139.138 361.062 139.138 361.062L109.268 395.187C109.268 395.187 128.287 411.795 163.299 427.174C169.078 429.767 175.743 432.52 182.5 435L171.125 454.201C151.935 450.736 133.286 444.754 115.66 436.41C87.587 423.261 61.015 403.537 46.728 381.674C47.6835 322.137 59.7638 254.501 75.1655 198.969C81.9712 173.849 90.2746 149.159 100.031 125.031C107.857 106.285 116.57 93.1357 116.388 93.0447C149.876 66.5637 190.417 56.7812 211.643 52.527ZM239.375 207.5C221.789 207.5 206.228 217.533 196.719 230.25C187.209 242.967 182.5 258.596 182.5 275.75C182.5 292.903 187.209 308.533 196.719 321.25C206.228 333.967 221.789 344 239.375 344C256.961 344 272.522 333.967 282.031 321.25C291.541 308.533 296.25 292.903 296.25 275.75C296.25 258.596 291.541 242.967 282.031 230.25C272.522 217.533 256.961 207.5 239.375 207.5ZM398.625 207.5C381.039 207.5 365.478 217.533 355.969 230.25C346.459 242.967 341.75 258.596 341.75 275.75C341.75 292.903 346.459 308.533 355.969 321.25C365.478 333.967 381.039 344 398.625 344C416.211 344 431.772 333.967 441.281 321.25C450.791 308.533 455.5 292.903 455.5 275.75C455.5 258.596 450.791 242.967 441.281 230.25C431.772 217.533 416.211 207.5 398.625 207.5ZM239.375 253C240.626 253 242.219 253.455 245.062 257.277C247.906 261.076 250.75 267.742 250.75 275.75C250.75 283.758 247.906 290.424 245.062 294.246C242.219 298.045 240.626 298.5 239.375 298.5C238.124 298.5 236.531 298.045 233.688 294.223C229.925 288.802 227.938 282.348 228 275.75C228 267.742 230.844 261.076 233.688 257.254C236.531 253.455 238.124 253 239.375 253ZM398.625 253C399.876 253 401.469 253.455 404.312 257.277C407.156 261.076 410 267.742 410 275.75C410 283.758 407.156 290.424 404.312 294.246C401.469 298.045 399.876 298.5 398.625 298.5C397.374 298.5 395.781 298.045 392.938 294.223C389.175 288.802 387.188 282.348 387.25 275.75C387.25 267.742 390.094 261.076 392.938 257.254C395.781 253.455 397.374 253 398.625 253Z" fill="#F9F9F9"/>
</svg>
