<svg width="550" height="608" viewBox="0 0 550 608" fill="none" xmlns="http://www.w3.org/2000/svg">
<path d="M246.666 0.666687V195.225C204.664 187.429 161.28 192.769 122.422 210.518C83.5642 228.267 51.1213 257.561 29.5116 294.412C7.9019 331.262 -1.8242 373.878 1.65785 416.455C5.1399 459.033 21.6608 499.502 48.9708 532.352C76.2807 565.202 113.052 588.836 154.278 600.035C195.503 611.235 239.178 609.455 279.356 594.938C319.533 580.422 354.26 553.875 378.807 518.912C403.353 483.949 416.527 442.269 416.533 399.55V286.225C449.142 300.091 484.232 307.171 519.666 307.033H550V137.167H519.666C461.942 137.167 416.533 90.5444 416.533 31V0.666687H246.666ZM307.333 61.3334H358.536C370.487 128.673 421.629 182.545 489.333 195.103V244.183C457.847 239.572 429.425 227.742 403.095 210.118L355.866 178.511V399.55C355.864 428.969 347.041 457.712 330.537 482.067C314.033 506.421 290.606 525.268 263.283 536.173C235.959 547.078 205.993 549.541 177.256 543.243C148.518 536.944 122.329 522.175 102.07 500.842C81.812 479.509 68.4148 452.592 63.6091 423.568C58.8035 394.543 62.8102 364.745 75.1117 338.021C87.4132 311.297 107.445 288.874 132.618 273.65C157.792 258.426 186.953 251.099 216.333 252.615V301.27C196.57 299.745 176.806 304.214 159.621 314.092C142.436 323.97 128.628 338.799 119.999 356.644C111.369 374.488 108.32 394.52 111.248 414.124C114.176 433.729 122.946 451.995 136.413 466.54C149.88 481.084 167.419 491.231 186.741 495.656C206.062 500.082 226.269 498.58 244.724 491.347C263.179 484.113 279.025 471.485 290.193 455.109C301.362 438.734 307.335 419.372 307.333 399.55V61.3334ZM170.833 399.55C170.833 389.494 174.828 379.85 181.939 372.739C189.049 365.628 198.694 361.633 208.75 361.633C218.806 361.633 228.45 365.628 235.561 372.739C242.672 379.85 246.666 389.494 246.666 399.55C246.666 409.606 242.672 419.25 235.561 426.361C228.45 433.472 218.806 437.467 208.75 437.467C198.694 437.467 189.049 433.472 181.939 426.361C174.828 419.25 170.833 409.606 170.833 399.55Z" fill="#F9F9F9"/>
</svg>
