<?xml version="1.0" encoding="UTF-8"?>
<svg id="Layer_2" data-name="Layer 2" xmlns="http://www.w3.org/2000/svg" viewBox="0 0 221.97 331.72">
  <defs>
    <style>
      .cls-1 {
        fill: #a96cf7;
        stroke-width: 0px;
      }
    </style>
  </defs>
  <g id="Layer_1-2" data-name="Layer 1">
    <g>
      <path class="cls-1" d="M170.27,16.23l12.88,30.71h-10.14l-7.59-20.41-.94-2.53-.93,2.54-7.5,20.4h-10.23l13.15-30.71h11.31M170.94,15.23h-12.63l-14.01,32.71h12.44l7.74-21.06,7.84,21.06h12.34l-13.71-32.71h0Z"/>
      <path class="cls-1" d="M220.58,1l-22.54,67.25h-10.13L210.45,1h10.13M221.97,0h-12.24l-23.21,69.25h12.24L221.97,0h0Z"/>
      <g>
        <path class="cls-1" d="M34.28,2.76c9.92,0,19.08,3.57,24.72,9.59l-7.4,8.48c-5.52-5.75-13.58-7.82-19.48-7.82-5.45,0-9.72,3.28-9.72,7.46s5.55,6.14,11.98,8.48c8.89,3.23,19.95,7.26,19.95,17.87s-8.51,21.43-24.76,21.43c-11.69,0-22.68-4.38-28.29-11.22l7.31-8.72c4.93,5.87,13.43,9.6,22.06,9.6,7.48,0,10.89-4.33,10.89-8.35,0-4.48-5.71-6.54-12.32-8.92-9.15-3.3-19.52-7.05-19.52-17.62,0-9.82,8.61-20.25,24.56-20.25M34.28,1.76C18.22,1.76,8.72,12.25,8.72,23.02c0,19.1,31.83,17.34,31.83,26.54,0,3.33-2.84,7.35-9.89,7.35-9.01,0-17.53-4.11-22.04-10.19L0,57.01c5.48,7.25,16.75,12.24,29.58,12.24,16.16,0,25.76-10.48,25.76-22.43,0-18.9-31.93-17.83-31.93-26.35,0-3.53,3.72-6.46,8.72-6.46,6.66,0,14.59,2.64,19.49,8.33l8.72-9.99c-5.88-6.76-15.67-10.58-26.05-10.58h0Z"/>
        <path class="cls-1" d="M101.18,2.67c18.33,0,31.13,11.59,31.13,28.19,0,20.97-16.25,37.4-37,37.4-18.33,0-31.13-11.63-31.13-28.29,0-20.91,16.25-37.3,37-37.3M96.09,57.91c13.25,0,23.63-11.45,23.63-26.07,0-11.08-7.98-18.83-19.41-18.83-13.19,0-23.53,11.45-23.53,26.07,0,11.08,7.94,18.83,19.32,18.83M101.18,1.67c-21.55,0-38,16.95-38,38.3,0,17.92,14.01,29.29,32.13,29.29,21.55,0,38-17.04,38-38.4,0-17.92-14.1-29.19-32.13-29.19h0ZM96.09,56.91c-10.48,0-18.32-6.86-18.32-17.83,0-14.01,9.89-25.07,22.53-25.07,10.48,0,18.41,6.86,18.41,17.83,0,14.01-9.99,25.07-22.63,25.07h0Z"/>
      </g>
      <path class="cls-1" d="M170.27,103.72l12.88,30.71h-10.14l-7.59-20.41-.94-2.53-.93,2.54-7.5,20.4h-10.23l13.15-30.71h11.31M170.94,102.72h-12.63l-14.01,32.71h12.44l7.74-21.06,7.84,21.06h12.34l-13.71-32.71h0Z"/>
      <path class="cls-1" d="M220.58,88.49l-22.54,67.25h-10.13l22.54-67.25h10.13M221.97,87.49h-12.24l-23.21,69.25h12.24l23.21-69.25h0Z"/>
      <g>
        <path class="cls-1" d="M34.28,90.26c9.92,0,19.08,3.57,24.72,9.59l-7.4,8.48c-5.52-5.75-13.58-7.82-19.48-7.82-5.45,0-9.72,3.28-9.72,7.46s5.55,6.14,11.98,8.48c8.89,3.23,19.95,7.26,19.95,17.87s-8.51,21.43-24.76,21.43c-11.69,0-22.68-4.38-28.29-11.22l7.31-8.72c4.93,5.87,13.43,9.6,22.06,9.6,7.48,0,10.89-4.33,10.89-8.35,0-4.48-5.71-6.54-12.32-8.92-9.15-3.3-19.52-7.05-19.52-17.62,0-9.82,8.61-20.25,24.56-20.25M34.28,89.26c-16.06,0-25.56,10.48-25.56,21.25,0,19.1,31.83,17.34,31.83,26.54,0,3.33-2.84,7.35-9.89,7.35-9.01,0-17.53-4.11-22.04-10.19l-8.62,10.28c5.48,7.25,16.75,12.24,29.58,12.24,16.16,0,25.76-10.48,25.76-22.43,0-18.9-31.93-17.83-31.93-26.35,0-3.53,3.72-6.46,8.72-6.46,6.66,0,14.59,2.64,19.49,8.33l8.72-9.99c-5.88-6.76-15.67-10.58-26.05-10.58h0Z"/>
        <path class="cls-1" d="M101.18,90.16c18.33,0,31.13,11.59,31.13,28.19,0,20.97-16.25,37.4-37,37.4-18.33,0-31.13-11.63-31.13-28.29,0-20.91,16.25-37.3,37-37.3M96.09,145.4c13.25,0,23.63-11.45,23.63-26.07,0-11.08-7.98-18.83-19.41-18.83-13.19,0-23.53,11.45-23.53,26.07,0,11.08,7.94,18.83,19.32,18.83M101.18,89.16c-21.55,0-38,16.95-38,38.3,0,17.92,14.01,29.29,32.13,29.29,21.55,0,38-17.04,38-38.4,0-17.92-14.1-29.19-32.13-29.19h0ZM96.09,144.4c-10.48,0-18.32-6.86-18.32-17.83,0-14.01,9.89-25.07,22.53-25.07,10.48,0,18.41,6.86,18.41,17.83,0,14.01-9.99,25.07-22.63,25.07h0Z"/>
      </g>
      <path class="cls-1" d="M170.27,191.21l12.88,30.71h-10.14l-7.59-20.41-.94-2.53-.93,2.54-7.5,20.4h-10.23l13.15-30.71h11.31M170.94,190.21h-12.63l-14.01,32.71h12.44l7.74-21.06,7.84,21.06h12.34l-13.71-32.71h0Z"/>
      <path class="cls-1" d="M220.58,175.98l-22.54,67.25h-10.13l22.54-67.25h10.13M221.97,174.98h-12.24l-23.21,69.25h12.24l23.21-69.25h0Z"/>
      <g>
        <path class="cls-1" d="M34.28,177.75c9.92,0,19.08,3.57,24.72,9.59l-7.4,8.48c-5.52-5.75-13.58-7.82-19.48-7.82-5.45,0-9.72,3.28-9.72,7.46s5.55,6.14,11.98,8.48c8.89,3.23,19.95,7.26,19.95,17.87s-8.51,21.43-24.76,21.43c-11.69,0-22.68-4.38-28.29-11.22l7.31-8.72c4.93,5.87,13.43,9.6,22.06,9.6,7.48,0,10.89-4.33,10.89-8.35,0-4.48-5.71-6.54-12.32-8.92-9.15-3.3-19.52-7.05-19.52-17.62,0-9.82,8.61-20.25,24.56-20.25M34.28,176.75c-16.06,0-25.56,10.48-25.56,21.25,0,19.1,31.83,17.34,31.83,26.54,0,3.33-2.84,7.35-9.89,7.35-9.01,0-17.53-4.11-22.04-10.19l-8.62,10.28c5.48,7.25,16.75,12.24,29.58,12.24,16.16,0,25.76-10.48,25.76-22.43,0-18.9-31.93-17.83-31.93-26.35,0-3.53,3.72-6.46,8.72-6.46,6.66,0,14.59,2.64,19.49,8.33l8.72-9.99c-5.88-6.76-15.67-10.58-26.05-10.58h0Z"/>
        <path class="cls-1" d="M101.18,177.65c18.33,0,31.13,11.59,31.13,28.19,0,20.97-16.25,37.4-37,37.4-18.33,0-31.13-11.63-31.13-28.29,0-20.91,16.25-37.3,37-37.3M96.09,232.89c13.25,0,23.63-11.45,23.63-26.07,0-11.08-7.98-18.83-19.41-18.83-13.19,0-23.53,11.45-23.53,26.07,0,11.08,7.94,18.83,19.32,18.83M101.18,176.65c-21.55,0-38,16.95-38,38.3,0,17.92,14.01,29.29,32.13,29.29,21.55,0,38-17.04,38-38.4,0-17.92-14.1-29.19-32.13-29.19h0ZM96.09,231.89c-10.48,0-18.32-6.86-18.32-17.83,0-14.01,9.89-25.07,22.53-25.07,10.48,0,18.41,6.86,18.41,17.83,0,14.01-9.99,25.07-22.63,25.07h0Z"/>
      </g>
      <path class="cls-1" d="M170.27,278.7l12.88,30.71h-10.14l-7.59-20.41-.94-2.53-.93,2.54-7.5,20.4h-10.23l13.15-30.71h11.31M170.94,277.7h-12.63l-14.01,32.71h12.44l7.74-21.06,7.84,21.06h12.34l-13.71-32.71h0Z"/>
      <path class="cls-1" d="M220.58,263.47l-22.54,67.25h-10.13l22.54-67.25h10.13M221.97,262.47h-12.24l-23.21,69.25h12.24l23.21-69.25h0Z"/>
      <g>
        <path class="cls-1" d="M34.28,265.24c9.92,0,19.08,3.57,24.72,9.59l-7.4,8.48c-5.52-5.75-13.58-7.82-19.48-7.82-5.45,0-9.72,3.28-9.72,7.46s5.55,6.14,11.98,8.48c8.89,3.23,19.95,7.26,19.95,17.87s-8.51,21.43-24.76,21.43c-11.69,0-22.68-4.38-28.29-11.22l7.31-8.72c4.93,5.87,13.43,9.6,22.06,9.6,7.48,0,10.89-4.33,10.89-8.35,0-4.48-5.71-6.54-12.32-8.92-9.15-3.3-19.52-7.05-19.52-17.62,0-9.82,8.61-20.25,24.56-20.25M34.28,264.24c-16.06,0-25.56,10.48-25.56,21.25,0,19.1,31.83,17.34,31.83,26.54,0,3.33-2.84,7.35-9.89,7.35-9.01,0-17.53-4.11-22.04-10.19l-8.62,10.28c5.48,7.25,16.75,12.24,29.58,12.24,16.16,0,25.76-10.48,25.76-22.43,0-18.9-31.93-17.83-31.93-26.35,0-3.53,3.72-6.46,8.72-6.46,6.66,0,14.59,2.64,19.49,8.33l8.72-9.99c-5.88-6.76-15.67-10.58-26.05-10.58h0Z"/>
        <path class="cls-1" d="M101.18,265.14c18.33,0,31.13,11.59,31.13,28.19,0,20.97-16.25,37.4-37,37.4-18.33,0-31.13-11.63-31.13-28.29,0-20.91,16.25-37.3,37-37.3M96.09,320.38c13.25,0,23.63-11.45,23.63-26.07,0-11.08-7.98-18.83-19.41-18.83-13.19,0-23.53,11.45-23.53,26.07,0,11.08,7.94,18.83,19.32,18.83M101.18,264.14c-21.55,0-38,16.95-38,38.3,0,17.92,14.01,29.29,32.13,29.29,21.55,0,38-17.04,38-38.4,0-17.92-14.1-29.19-32.13-29.19h0ZM96.09,319.38c-10.48,0-18.32-6.86-18.32-17.83,0-14.01,9.89-25.07,22.53-25.07,10.48,0,18.41,6.86,18.41,17.83,0,14.01-9.99,25.07-22.63,25.07h0Z"/>
      </g>
    </g>
  </g>
</svg>