<?xml version="1.0" encoding="UTF-8"?>
<svg id="Layer_2" data-name="Layer 2" xmlns="http://www.w3.org/2000/svg" version="1.1" viewBox="0 0 318.6 319.9">
  <defs>
    <style>
      .cls-1, .cls-2, .cls-3, .cls-4 {
        fill: none;
        stroke: #501da6;
        stroke-width: 10px;
      }

      .cls-1, .cls-3 {
        stroke-miterlimit: 10;
      }

      .cls-2, .cls-4 {
        stroke-linejoin: round;
      }

      .cls-3, .cls-4 {
        stroke-linecap: round;
      }
    </style>
  </defs>
  <g>
    <path class="cls-2" d="M180.3,74.5c-14.8,6.2-28.9,6.2-42.3,0-11.8,0-21.3,9.5-21.3,21.3v32.4c0,5.6,4.6,10.2,10.2,10.2h64.8c5.6,0,10.2-4.6,10.2-10.2v-32.1c0-11.9-9.7-21.6-21.6-21.6h0Z"/>
    <circle class="cls-1" cx="159.3" cy="31.7" r="26.7"/>
  </g>
  <g>
    <path class="cls-2" d="M68.5,251.1c-14.8,6.2-28.9,6.2-42.3,0-11.8,0-21.3,9.5-21.3,21.3v32.4c0,5.6,4.6,10.2,10.2,10.2h64.8c5.6,0,10.2-4.5,10.2-10.2v-32.1c0-11.9-9.7-21.6-21.6-21.6h0Z"/>
    <circle class="cls-1" cx="47.6" cy="208.3" r="26.7"/>
  </g>
  <g>
    <path class="cls-4" d="M292,251.1c-14.8,6.2-28.9,6.2-42.3,0-11.8,0-21.3,9.5-21.3,21.3v32.4c0,5.6,4.6,10.2,10.2,10.2h64.8c5.6,0,10.2-4.5,10.2-10.2v-32.1c0-11.9-9.7-21.6-21.6-21.6h0Z"/>
    <circle class="cls-1" cx="271.1" cy="208.3" r="26.7"/>
  </g>
  <g>
    <path class="cls-3" d="M111.4,273.4c14.7,6.2,30.8,9.6,47.8,9.6s33.1-3.4,47.8-9.6"/>
    <path class="cls-3" d="M109,48.3c-42.8,19.2-72.5,62.1-72.5,112"/>
    <path class="cls-3" d="M281.9,160.3c0-50.4-30.4-93.7-73.9-112.6"/>
  </g>
</svg>