<?xml version="1.0" encoding="UTF-8"?>
<svg id="Layer_2" data-name="Layer 2" xmlns="http://www.w3.org/2000/svg" viewBox="0 0 318.65 319.93">
  <defs>
    <style>
      .cls-1, .cls-2 {
        fill: none;
        stroke: #501da6;
        stroke-miterlimit: 10;
        stroke-width: 10px;
      }

      .cls-2 {
        stroke-linecap: round;
      }
    </style>
  </defs>
  <g id="Layer_2-2" data-name="Layer 2">
    <g>
      <g>
        <path class="cls-1" d="M180.29,74.52c-14.81,6.16-28.91,6.24-42.26,0-11.76,0-21.29,9.53-21.29,21.29v32.39c0,5.61,4.55,10.16,10.16,10.16h64.82c5.61,0,10.16-4.55,10.16-10.16v-32.07c0-11.93-9.67-21.6-21.6-21.6Z"/>
        <circle class="cls-1" cx="159.32" cy="31.69" r="26.69"/>
      </g>
      <g>
        <path class="cls-1" d="M68.54,251.09c-14.81,6.16-28.91,6.24-42.26,0-11.76,0-21.29,9.53-21.29,21.29v32.39c0,5.61,4.55,10.16,10.16,10.16h64.82c5.61,0,10.16-4.55,10.16-10.16v-32.07c0-11.93-9.67-21.6-21.6-21.6Z"/>
        <circle class="cls-1" cx="47.57" cy="208.26" r="26.69"/>
      </g>
      <g>
        <path class="cls-1" d="M292.04,251.09c-14.81,6.16-28.91,6.24-42.26,0-11.76,0-21.29,9.53-21.29,21.29v32.39c0,5.61,4.55,10.16,10.16,10.16h64.82c5.61,0,10.16-4.55,10.16-10.16v-32.07c0-11.93-9.67-21.6-21.6-21.6Z"/>
        <circle class="cls-1" cx="271.08" cy="208.26" r="26.69"/>
      </g>
      <g>
        <path class="cls-2" d="M111.42,273.37c14.68,6.21,30.82,9.64,47.76,9.64s33.08-3.43,47.76-9.64"/>
        <path class="cls-2" d="M109.02,48.31c-42.76,19.18-72.54,62.11-72.54,112.01"/>
        <path class="cls-2" d="M281.87,160.32c0-50.41-30.4-93.71-73.86-112.59"/>
      </g>
    </g>
  </g>
</svg>