<?xml version="1.0" encoding="UTF-8"?>
<svg id="Layer_2" data-name="Layer 2" xmlns="http://www.w3.org/2000/svg" viewBox="0 0 125.81 241.34">
  <defs>
    <style>
      .cls-1, .cls-2 {
        fill: none;
        stroke: #501da6;
        stroke-miterlimit: 10;
        stroke-width: 10px;
      }

      .cls-2 {
        stroke-linecap: round;
      }
    </style>
  </defs>
  <g id="Layer_2-2" data-name="Layer 2">
    <g>
      <g>
        <rect class="cls-1" x="93.23" y="12.18" width="24.14" height="42.9" rx="12.07" ry="12.07"/>
        <rect class="cls-1" x="69.09" y="8.75" width="24.14" height="49.76" rx="12.07" ry="12.07"/>
        <path class="cls-1" d="M44.95,42.69v-25.62c0-6.67,5.4-12.07,12.07-12.07h0c6.67,0,12.07,5.4,12.07,12.07v25.62"/>
        <path class="cls-1" d="M20.8,41.98v-20.61c0-6.67,5.4-12.07,12.07-12.07h0c6.67,0,12.07,5.4,12.07,12.07v21.32"/>
      </g>
      <rect class="cls-1" x="25.3" y="156.97" width="84.87" height="32.22"/>
      <g>
        <line class="cls-2" x1="31.59" y1="192.22" x2="31.59" y2="236.34"/>
        <line class="cls-2" x1="103.87" y1="192.22" x2="103.87" y2="236.34"/>
      </g>
      <g>
        <path class="cls-1" d="M19.6,39.65h3.52s32.78,0,32.78,0c6.67,0,12.07,5.4,12.07,12.07h0c0,6.67-5.4,12.07-12.07,12.07h-14.92"/>
        <path class="cls-2" d="M98.65,154.9v-19.84s19.64-8.8,21.48-29.87c0,0,3.09-12.82-3.89-52.57"/>
        <path class="cls-2" d="M25.3,39.65s-16.39,3.2-17.45,17.87l-2.78,27.67s-1.86,14.61,14.53,31.53l17.36,18.31v19.87"/>
        <path class="cls-2" d="M49.26,63.79h-12.3s-3.2,1.51-2.74,11.53"/>
        <path class="cls-2" d="M63.69,99.44s4.2-19.45-22.71-35.64"/>
      </g>
    </g>
  </g>
</svg>