<?xml version="1.0" encoding="UTF-8"?>
<svg id="Layer_2" data-name="Layer 2" xmlns="http://www.w3.org/2000/svg" viewBox="0 0 237.84 237.17">
  <defs>
    <style>
      .cls-1 {
        stroke-miterlimit: 10;
      }

      .cls-1, .cls-2 {
        fill: none;
        stroke: #501da6;
        stroke-linecap: round;
        stroke-width: 10px;
      }

      .cls-2 {
        stroke-linejoin: round;
      }
    </style>
  </defs>
  <g id="Layer_2-2" data-name="Layer 2">
    <g>
      <g>
        <g>
          <path class="cls-1" d="M73.97,79.65c9.29,8.77,18.32,19.92,26.38,32.91"/>
          <path class="cls-1" d="M47.06,47.54s-8.02,95.26,53.29,65.02c8.15,15.29,12,27.83,9.9,36.55"/>
        </g>
        <path class="cls-1" d="M47.06,47.54s90.16,5.91,53.29,65.02"/>
      </g>
      <g>
        <g>
          <path class="cls-1" d="M190.42,52.71c-12.63,10.69-25.78,24.85-37.94,41.5-2.49,3.4-4.86,6.81-7.12,10.22"/>
          <path class="cls-1" d="M130.14,152.98c-.56-10.91,5.49-28,15.22-48.56"/>
        </g>
        <path class="cls-2" d="M230.96,5s-144.76,7.23-86.94,102.28c0,0,99.73,51.16,86.94-102.28Z"/>
      </g>
      <g>
        <path class="cls-1" d="M147.06,179.52c2.9,0,5.54-1.1,7.51-2.9,2.16-1.96,3.51-4.75,3.51-7.84v-3.76c0-5.9-4.96-10.73-11.03-10.73h-27.88s-3.39,0-3.39,0"/>
        <path class="cls-2" d="M105.85,179.52h51.42l43.54-30.42c.66.11,19.72-15.59,30.07-6.86-.01.03,8.15,6.91-8.78,22.07,0,0-31.86,28.13-48.8,41.2s-35.97,22.16-61.55,17.92l-42.32-6.41-24.16,15.14C12.89,221.99.3,203.49,6.55,177.07l30.87-13.13,13.83-9.65c28.14-22.84,63.63,0,63.63,0"/>
        <path class="cls-1" d="M46.47,157.63c-9.95,22.84-1.48,42.66,26.31,59.34"/>
      </g>
    </g>
  </g>
</svg>